<?xml version="1.0" encoding="utf-8"?>
<!-- Generator: Adobe Illustrator 24.2.3, SVG Export Plug-In . SVG Version: 6.00 Build 0)  -->
<svg version="1.1" id="Layer_1" xmlns="http://www.w3.org/2000/svg" xmlns:xlink="http://www.w3.org/1999/xlink" x="0px" y="0px"
	 viewBox="0 0 1600 300" style="enable-background:new 0 0 1600 300;" xml:space="preserve">
<style type="text/css">
	.st0{fill:url(#SVGID_1_);}
	.st1{fill:#FFFFFF;}
</style>
<linearGradient id="SVGID_1_" gradientUnits="userSpaceOnUse" x1="201.042" y1="-169.4878" x2="1303.5118" y2="419.4337">
	<stop  offset="0.0642" style="stop-color:#00EECD"/>
	<stop  offset="0.3378" style="stop-color:#03A8B3"/>
	<stop  offset="0.5" style="stop-color:#0483A5"/>
	<stop  offset="0.6341" style="stop-color:#046FB1"/>
	<stop  offset="0.8676" style="stop-color:#0451C2"/>
	<stop  offset="1" style="stop-color:#0446C9"/>
</linearGradient>
<rect x="1" y="1" class="st0" width="1600" height="300"/>
<g>
	<path class="st1" d="M94.61,162.69l36.45-15.25l-36.45-15.25V118l49.81,22v14.71l-49.81,22.14V162.69z"/>
	<path class="st1" d="M214.36,121.92v17.55h43.87v14.44h-43.87v19.03h49.27v14.98h-68.17v-75.6c0-3.51,1.75-5.4,5.4-5.4h62.77v14.98
		H214.36z"/>
	<path class="st1" d="M275.11,172.95h44.14c5.4,0,8.1-2.43,8.1-6.75c0-4.05-3.51-5.94-9.45-7.96l-19.84-7.02
		c-15.79-5.54-24.16-11.47-24.16-23.49c0-13.36,9.31-20.79,25.65-20.79h46.3v25.51h-17.95v-10.53h-25.92
		c-5.81,0-8.77,2.02-8.77,6.21c0,4.05,4.19,5.81,9.85,7.83l22.68,7.96c13.77,5,21.46,10.26,21.46,22.81
		c0,14.45-8.77,21.19-24.16,21.19h-47.92V172.95z"/>
	<path class="st1" d="M434,136.23c0,21.87-8.37,29.43-32.26,29.43h-17.68v22.27h-18.9v-66.01h-8.64v-14.98h45.22
		C425.63,106.94,434,114.5,434,136.23z M415.23,135.82c0-10.66-4.05-14.85-17.82-14.85h-13.36v29.7h13.36
		C411.19,150.67,415.23,146.49,415.23,135.82z"/>
	<path class="st1" d="M506.22,144.6c7.15,1.62,15.12,7.42,15.12,20.79c0,16.2-8.64,23.76-39.42,23.76
		c-31.05,0-39.69-7.56-39.69-23.76c0-13.36,8.1-19.17,15.25-20.79v-0.27c-6.21-1.89-11.88-6.75-11.88-17.14
		c0-14.71,9.85-21.46,36.31-21.46c26.19,0,36.18,6.75,36.18,21.46c0,10.39-5.67,15.25-11.88,17.14V144.6z M502.44,163.63
		c0-8.23-5.67-11.74-20.52-11.74c-15.12,0-20.79,3.51-20.79,11.74s5.67,11.61,20.79,11.61
		C496.77,175.24,502.44,171.87,502.44,163.63z M481.93,138.79c12.55,0,17.82-2.97,17.82-9.31c0-7.15-5.27-10.39-17.82-10.39
		c-12.69,0-17.95,3.24-17.95,10.39C463.97,135.82,469.24,138.79,481.93,138.79z"/>
	<path class="st1" d="M531.88,163.9l41.17-24.84c6.75-4.18,8.77-7.15,8.77-11.07c0-4.19-2.7-6.07-8.5-6.07H549.7v11.74h-17.82
		v-26.73h47.92c15.25,0,21.73,7.15,21.73,19.57c0,11.2-3.91,18.49-18.36,26.59l-28.48,16.33v3.51h47.65v14.98h-70.47V163.9z"/>
	<path class="st1" d="M687.26,163.36c0,18.76-8.5,25.65-36.72,25.65s-36.72-6.88-36.72-26.19v-27.54
		c0-23.62,12.01-28.35,39.01-28.35h28.48v14.98h-27.4c-16.6,0-21.33,2.7-21.33,14.58v1.35h20.25
		C679.56,137.85,687.26,144.73,687.26,163.36z M668.49,162.42c0-8.23-3.1-11.34-17.95-11.34h-17.95v11.07
		c0,8.78,2.97,12.29,17.95,12.29C665.39,174.43,668.49,170.92,668.49,162.42z"/>
	<path class="st1" d="M771.9,163.36c0,18.76-8.5,25.65-36.72,25.65s-36.72-6.88-36.72-26.19v-27.54c0-23.62,12.01-28.35,39.01-28.35
		h28.48v14.98h-27.4c-16.6,0-21.33,2.7-21.33,14.58v1.35h20.25C764.21,137.85,771.9,144.73,771.9,163.36z M753.14,162.42
		c0-8.23-3.1-11.34-17.95-11.34h-17.95v11.07c0,8.78,2.97,12.29,17.95,12.29C750.03,174.43,753.14,170.92,753.14,162.42z"/>
	<path class="st1" d="M898.94,135.42v23.89c0,19.98-9.18,28.62-31.05,28.62h-49.95v-14.98h9.31v-51.03h-9.31v-14.98h49.95
		C889.76,106.94,898.94,115.58,898.94,135.42z M880.04,138.79c0-11.74-5.13-16.87-17.14-16.87h-16.74v51.03h16.74
		c12.01,0,17.14-5.26,17.14-17.01V138.79z"/>
	<path class="st1" d="M932.96,121.92v17.55h43.87v14.44h-43.87v19.03h49.27v14.98h-68.17v-75.6c0-3.51,1.75-5.4,5.4-5.4h62.77v14.98
		H932.96z"/>
	<path class="st1" d="M1071.46,165.52c0,14.85-7.15,22.41-27,22.41h-46.98v-81h44.82c18.9,0,26.46,6.75,26.46,20.79
		c0,8.77-3.37,14.85-10.12,17.68C1066.2,147.84,1071.46,154.86,1071.46,165.52z M1015.71,120.97v18.76h22.54
		c8.91,0,12.55-3.1,12.55-9.45c0-6.07-3.64-9.31-12.55-9.31H1015.71z M1053.65,163.5c0-7.02-3.64-10.53-13.63-10.53h-24.3v20.92
		h24.3C1050,173.89,1053.65,170.38,1053.65,163.5z"/>
	<path class="st1" d="M1173.12,172.95v14.98h-29.83v-8.91c-11.07,6.61-21.73,9.85-32.94,9.72c-14.85-0.14-26.32-5.8-26.32-28.89
		v-52.92h18.9v49.54c0,13.23,5.4,17.01,14.04,17.01c7.29,0,17.95-3.78,26.32-9.99v-56.56h18.76v66.01H1173.12z"/>
	<path class="st1" d="M1201.07,138.12v18.49c0,11.61,5,16.33,18.49,16.33h19.3v-28.08h17.82v43.06h-42.12
		c-22.81,0-32.4-8.23-32.4-28.62v-23.89c0-20.25,9.58-28.48,32.4-28.48h42.12v14.98h-37.12
		C1206.06,121.92,1201.07,126.51,1201.07,138.12z"/>
	<path class="st1" d="M1290.03,138.12v18.49c0,11.61,5,16.33,18.49,16.33h19.3v-28.08h17.82v43.06h-42.12
		c-22.81,0-32.4-8.23-32.4-28.62v-23.89c0-20.25,9.58-28.48,32.4-28.48h42.12v14.98h-37.12
		C1295.02,121.92,1290.03,126.51,1290.03,138.12z"/>
	<path class="st1" d="M1381.96,121.92v17.55h43.87v14.44h-43.87v19.03h49.27v14.98h-68.17v-75.6c0-3.51,1.75-5.4,5.4-5.4h62.77
		v14.98H1381.96z"/>
	<path class="st1" d="M1522.63,172.95v14.98h-22.95l-16.06-27.81h-15.25v27.81h-18.9v-66.01h-8.5v-14.98h48.73
		c24.03,0,32.26,8.5,32.26,26.05c0,13.5-5,22.41-18.36,25.65l8.77,14.31H1522.63z M1468.36,145.14h18.76
		c12.01,0,15.93-3.64,15.93-11.61s-3.92-11.61-15.93-11.61h-18.76V145.14z"/>
</g>
</svg>
