<?xml version="1.0" encoding="utf-8"?>
<!-- Generator: Adobe Illustrator 24.2.3, SVG Export Plug-In . SVG Version: 6.00 Build 0)  -->
<svg version="1.1" id="Layer_1" xmlns="http://www.w3.org/2000/svg" xmlns:xlink="http://www.w3.org/1999/xlink" x="0px" y="0px"
	 viewBox="0 0 1600 300" style="enable-background:new 0 0 1600 300;" xml:space="preserve">
<style type="text/css">
	.st0{fill:url(#SVGID_1_);}
	.st1{fill:#F1F1F1;}
</style>
<linearGradient id="SVGID_1_" gradientUnits="userSpaceOnUse" x1="201.042" y1="469.4878" x2="1303.5118" y2="-119.4337" gradientTransform="matrix(1 0 0 -1 0 300)">
	<stop  offset="6.420000e-02" style="stop-color:#FF1333"/>
	<stop  offset="1" style="stop-color:#FBB936"/>
</linearGradient>
<rect x="1" y="1" class="st0" width="1600" height="300"/>
<g>
	<path class="st1" d="M65,95.4h52.1v17.8H83v17.3h34.1v17.5H83V173h34.1v17.9H65V95.4z"/>
	<path class="st1" d="M184.2,108.3l-13.5,11.9c-4.7-6.6-9.5-9.9-14.4-9.9c-2.4,0-4.3,0.6-5.9,1.9c-1.5,1.3-2.3,2.7-2.3,4.3
		c0,1.6,0.5,3.1,1.6,4.5c1.5,1.9,5.9,6,13.3,12.3c6.9,5.8,11.1,9.5,12.6,11c3.7,3.7,6.3,7.3,7.8,10.7c1.5,3.4,2.3,7.1,2.3,11.1
		c0,7.8-2.7,14.3-8.1,19.4c-5.4,5.1-12.5,7.7-21.2,7.7c-6.8,0-12.7-1.7-17.8-5c-5-3.3-9.4-8.6-13-15.7l15.3-9.2
		c4.6,8.4,9.9,12.7,15.9,12.7c3.1,0,5.7-0.9,7.9-2.7c2.1-1.8,3.2-3.9,3.2-6.3c0-2.2-0.8-4.3-2.4-6.5c-1.6-2.2-5.1-5.5-10.6-9.9
		c-10.4-8.5-17.1-15-20.2-19.6c-3-4.6-4.6-9.2-4.6-13.8c0-6.6,2.5-12.3,7.6-17c5-4.7,11.3-7.1,18.7-7.1c4.8,0,9.3,1.1,13.6,3.3
		S179.2,102.5,184.2,108.3z"/>
	<path class="st1" d="M203.2,95.4h19.3c10.4,0,18,1,22.6,2.9c4.6,1.9,8.2,5,10.9,9.4c2.7,4.3,4,9.5,4,15.5c0,6.7-1.7,12.2-5.2,16.6
		c-3.5,4.4-8.2,7.5-14.2,9.2c-3.5,1-9.9,1.5-19.2,1.5v40.5h-18.2V95.4z M221.4,132.7h5.8c4.5,0,7.7-0.3,9.5-1
		c1.8-0.7,3.2-1.7,4.2-3.2c1-1.5,1.5-3.3,1.5-5.4c0-3.7-1.4-6.4-4.3-8.1c-2.1-1.3-5.9-1.9-11.6-1.9h-5.1V132.7z"/>
	<path class="st1" d="M323.6,139.1c4.3,2.8,7.7,6.3,10,10.7c2.4,4.4,3.5,9.1,3.5,14.1c0,5.5-1.4,10.6-4.1,15.3
		c-2.7,4.7-6.4,8.2-11.1,10.6c-4.6,2.4-10.5,3.5-17.7,3.5c-7.7,0-13.8-1.1-18.4-3.4c-4.5-2.3-8.2-5.7-10.9-10.3s-4.1-9.8-4.1-15.6
		c0-5,1.1-9.6,3.3-13.7c2.2-4.1,5.5-7.8,9.8-11.1c-2.9-2.9-5-6-6.5-9.2c-1.5-3.3-2.2-6.7-2.2-10.3c0-5,1.2-9.5,3.6-13.6
		c2.4-4.1,5.8-7.3,10.1-9.5c4.3-2.3,9.3-3.4,15-3.4c5.6,0,10.5,1.1,14.7,3.4c4.2,2.3,7.6,5.5,10,9.8c2.4,4.2,3.7,8.7,3.7,13.6
		c0,3.4-0.6,6.6-1.9,9.5C329.3,132.2,327,135.5,323.6,139.1z M304.2,148.8c-4.4,0-8.1,1.3-11,4s-4.5,5.8-4.5,9.5
		c0,3.9,1.4,7.1,4.2,9.8c2.8,2.7,6.5,4,11.1,4c4.6,0,8.3-1.2,11.1-3.7c2.7-2.5,4.1-5.7,4.1-9.6s-1.4-7.2-4.3-9.9
		S308.5,148.8,304.2,148.8z M303.5,110.5c-3,0-5.4,1-7.4,2.9c-1.9,2-2.9,4.5-2.9,7.5c0,3.1,1,5.6,3.1,7.7c2,2.1,4.5,3.1,7.5,3.1
		c3.1,0,5.6-1,7.6-3c2-2,3-4.7,3-7.9c0-3.1-1-5.6-3-7.5C309.4,111.5,306.8,110.5,303.5,110.5z"/>
	<path class="st1" d="M364.5,126.1h-17.7c0.5-10.3,3.7-18.4,9.7-24.3c6-5.9,13.7-8.9,23.1-8.9c5.8,0,10.9,1.2,15.4,3.7
		c4.4,2.4,8,6,10.7,10.6c2.7,4.6,4,9.3,4,14.1c0,5.7-1.6,11.8-4.8,18.3c-3.2,6.5-9.1,14.3-17.7,23.2l-10.7,11.3h34v16.8h-66.2v-8.7
		l29.5-30.1c7.1-7.2,11.9-13,14.3-17.4c2.4-4.4,3.5-8.4,3.5-11.9c0-3.7-1.2-6.7-3.7-9.1c-2.4-2.4-5.6-3.6-9.4-3.6
		c-3.9,0-7.1,1.5-9.7,4.4C366,117.2,364.7,121.2,364.5,126.1z"/>
	<path class="st1" d="M454.4,93l15.5,7.7l-16.7,32.5c8.1,0,15,2.9,20.7,8.7c5.7,5.8,8.5,13,8.5,21.6c0,8.3-2.9,15.4-8.7,21.1
		c-5.8,5.8-12.8,8.7-21.1,8.7c-8.6,0-15.8-3-21.5-9c-5.7-6-8.6-12.9-8.6-20.6c0-2.9,0.4-5.9,1.3-8.9c0.9-3,2.9-7.6,6.1-13.8
		L454.4,93z M452.1,150.4c-3.4,0-6.2,1.2-8.5,3.7c-2.3,2.4-3.4,5.5-3.4,9.2s1.2,6.8,3.6,9.3c2.4,2.5,5.2,3.8,8.4,3.8
		c3.4,0,6.3-1.2,8.7-3.7c2.4-2.5,3.6-5.6,3.6-9.4c0-3.7-1.2-6.7-3.5-9.2C458.6,151.6,455.6,150.4,452.1,150.4z"/>
	<path class="st1" d="M528.9,93l15.5,7.7l-16.7,32.5c8.1,0,15,2.9,20.7,8.7c5.7,5.8,8.5,13,8.5,21.6c0,8.3-2.9,15.4-8.7,21.1
		c-5.8,5.8-12.8,8.7-21.1,8.7c-8.6,0-15.8-3-21.5-9c-5.7-6-8.6-12.9-8.6-20.6c0-2.9,0.4-5.9,1.3-8.9c0.9-3,2.9-7.6,6.1-13.8
		L528.9,93z M526.6,150.4c-3.4,0-6.2,1.2-8.5,3.7c-2.3,2.4-3.4,5.5-3.4,9.2s1.2,6.8,3.6,9.3c2.4,2.5,5.2,3.8,8.4,3.8
		c3.4,0,6.3-1.2,8.7-3.7c2.4-2.5,3.6-5.6,3.6-9.4c0-3.7-1.2-6.7-3.5-9.2C533.1,151.6,530.1,150.4,526.6,150.4z"/>
	<path class="st1" d="M613,95.4h21.5c13.9,0,24.2,1.7,30.9,5.2c6.7,3.4,12.3,9,16.7,16.8c4.4,7.8,6.6,16.8,6.6,27.1
		c0,7.4-1.2,14.1-3.7,20.3c-2.4,6.2-5.8,11.3-10.1,15.4c-4.3,4.1-9,6.9-14,8.4c-5,1.6-13.7,2.3-26.1,2.3H613V95.4z M631,112.9v60.3
		h8.4c8.3,0,14.3-1,18.1-2.9c3.7-1.9,6.8-5.1,9.2-9.6c2.4-4.5,3.6-10.1,3.6-16.6c0-10.1-2.8-18-8.5-23.6c-5.1-5-13.3-7.5-24.6-7.5
		H631z"/>
	<path class="st1" d="M774.8,160.7h-57c0.8,5,3,9,6.6,12c3.6,3,8.1,4.4,13.7,4.4c6.6,0,12.3-2.3,17.1-6.9l14.9,7
		c-3.7,5.3-8.2,9.2-13.4,11.7s-11.4,3.8-18.5,3.8c-11.1,0-20.1-3.5-27.1-10.5c-7-7-10.5-15.7-10.5-26.3c0-10.8,3.5-19.7,10.4-26.9
		c6.9-7.1,15.7-10.7,26.1-10.7c11.1,0,20.2,3.6,27.1,10.7c7,7.1,10.5,16.5,10.5,28.2L774.8,160.7z M757.1,146.7
		c-1.2-3.9-3.5-7.1-6.9-9.6s-7.4-3.7-12-3.7c-4.9,0-9.3,1.4-13,4.2c-2.3,1.7-4.5,4.8-6.5,9.2H757.1z"/>
	<path class="st1" d="M781.6,120.2h18.1l17.8,41.7l17.8-41.7h18l-30.1,70.7h-11.5L781.6,120.2z"/>
	<path class="st1" d="M934.5,160.7h-57c0.8,5,3,9,6.6,12c3.6,3,8.1,4.4,13.7,4.4c6.6,0,12.3-2.3,17.1-6.9l14.9,7
		c-3.7,5.3-8.2,9.2-13.4,11.7s-11.4,3.8-18.5,3.8c-11.1,0-20.1-3.5-27.1-10.5c-7-7-10.5-15.7-10.5-26.3c0-10.8,3.5-19.7,10.4-26.9
		c6.9-7.1,15.7-10.7,26.1-10.7c11.1,0,20.2,3.6,27.1,10.7c7,7.1,10.5,16.5,10.5,28.2L934.5,160.7z M916.7,146.7
		c-1.2-3.9-3.5-7.1-6.9-9.6s-7.4-3.7-12-3.7c-4.9,0-9.3,1.4-13,4.2c-2.3,1.7-4.5,4.8-6.5,9.2H916.7z"/>
	<path class="st1" d="M946.9,93h17.7v97.9h-17.7V93z"/>
	<path class="st1" d="M1013.9,118.4c6.7,0,12.9,1.7,18.8,5c5.9,3.3,10.4,7.9,13.7,13.6c3.3,5.7,4.9,11.9,4.9,18.5
		c0,6.7-1.7,12.9-5,18.7c-3.3,5.8-7.8,10.3-13.5,13.6c-5.7,3.3-12,4.9-18.9,4.9c-10.1,0-18.8-3.6-25.9-10.8
		c-7.2-7.2-10.7-16-10.7-26.3c0-11,4-20.2,12.1-27.6C996.5,121.6,1004.7,118.4,1013.9,118.4z M1014.2,135.1
		c-5.5,0-10.1,1.9-13.8,5.7c-3.7,3.8-5.5,8.7-5.5,14.7c0,6.1,1.8,11.1,5.4,14.9c3.6,3.8,8.2,5.7,13.8,5.7s10.2-1.9,13.9-5.8
		c3.7-3.9,5.5-8.8,5.5-14.9c0-6.1-1.8-11-5.4-14.8C1024.5,137,1019.8,135.1,1014.2,135.1z"/>
	<path class="st1" d="M1083.5,120.2v7.8c3.2-3.2,6.7-5.6,10.4-7.2c3.7-1.6,7.7-2.4,11.9-2.4c9.2,0,17.1,3.5,23.5,10.5
		c6.5,7,9.7,15.9,9.7,26.8c0,10.5-3.3,19.3-10,26.4c-6.7,7.1-14.6,10.6-23.7,10.6c-4.1,0-7.9-0.7-11.4-2.2c-3.5-1.4-7-3.8-10.5-7.1
		v33.3h-17.6v-96.5H1083.5z M1102.1,134.8c-5.6,0-10.2,1.9-13.9,5.7c-3.7,3.8-5.5,8.8-5.5,14.9c0,6.3,1.8,11.4,5.5,15.2
		c3.7,3.9,8.3,5.8,13.9,5.8c5.4,0,10-2,13.7-5.9c3.7-3.9,5.6-9,5.6-15.1c0-6.1-1.8-11-5.5-14.9
		C1112.2,136.7,1107.6,134.8,1102.1,134.8z"/>
	<path class="st1" d="M1224.4,160.7h-57c0.8,5,3,9,6.6,12c3.6,3,8.1,4.4,13.7,4.4c6.6,0,12.3-2.3,17.1-6.9l14.9,7
		c-3.7,5.3-8.2,9.2-13.4,11.7s-11.4,3.8-18.5,3.8c-11.1,0-20.1-3.5-27.1-10.5c-7-7-10.5-15.7-10.5-26.3c0-10.8,3.5-19.7,10.4-26.9
		c6.9-7.1,15.7-10.7,26.1-10.7c11.1,0,20.2,3.6,27.1,10.7c7,7.1,10.5,16.5,10.5,28.2L1224.4,160.7z M1206.7,146.7
		c-1.2-3.9-3.5-7.1-6.9-9.6s-7.4-3.7-12-3.7c-4.9,0-9.3,1.4-13,4.2c-2.3,1.7-4.5,4.8-6.5,9.2H1206.7z"/>
	<path class="st1" d="M1234.6,120.2h15.2v8.9c1.6-3.5,3.8-6.2,6.6-8c2.7-1.8,5.7-2.7,9-2.7c2.3,0,4.7,0.6,7.2,1.8l-5.5,15.3
		c-2.1-1-3.8-1.6-5.1-1.6c-2.7,0-5,1.7-6.9,5.1c-1.9,3.4-2.8,10-2.8,19.9l0.1,3.4v28.6h-17.6V120.2z"/>
	<path class="st1" d="M1311.1,95.4h52.8v17.9h-17.4v77.6H1328v-77.6h-16.9V95.4z"/>
	<path class="st1" d="M1407.6,118.4c6.7,0,12.9,1.7,18.8,5c5.9,3.3,10.4,7.9,13.7,13.6c3.3,5.7,4.9,11.9,4.9,18.5
		c0,6.7-1.7,12.9-5,18.7c-3.3,5.8-7.8,10.3-13.5,13.6c-5.7,3.3-12,4.9-18.9,4.9c-10.1,0-18.8-3.6-25.9-10.8
		c-7.2-7.2-10.7-16-10.7-26.3c0-11,4-20.2,12.1-27.6C1390.2,121.6,1398.4,118.4,1407.6,118.4z M1407.9,135.1
		c-5.5,0-10.1,1.9-13.8,5.7c-3.7,3.8-5.5,8.7-5.5,14.7c0,6.1,1.8,11.1,5.4,14.9c3.6,3.8,8.2,5.7,13.8,5.7s10.2-1.9,13.9-5.8
		c3.7-3.9,5.5-8.8,5.5-14.9c0-6.1-1.8-11-5.4-14.8C1418.1,137,1413.5,135.1,1407.9,135.1z"/>
	<path class="st1" d="M1492.7,118.4c6.7,0,12.9,1.7,18.8,5c5.9,3.3,10.4,7.9,13.7,13.6c3.3,5.7,4.9,11.9,4.9,18.5
		c0,6.7-1.7,12.9-5,18.7c-3.3,5.8-7.8,10.3-13.5,13.6c-5.7,3.3-12,4.9-18.9,4.9c-10.1,0-18.8-3.6-25.9-10.8
		c-7.2-7.2-10.7-16-10.7-26.3c0-11,4-20.2,12.1-27.6C1475.3,121.6,1483.5,118.4,1492.7,118.4z M1493,135.1c-5.5,0-10.1,1.9-13.8,5.7
		c-3.7,3.8-5.5,8.7-5.5,14.7c0,6.1,1.8,11.1,5.4,14.9c3.6,3.8,8.2,5.7,13.8,5.7s10.2-1.9,13.9-5.8c3.7-3.9,5.5-8.8,5.5-14.9
		c0-6.1-1.8-11-5.4-14.8C1503.3,137,1498.6,135.1,1493,135.1z"/>
	<path class="st1" d="M1542.7,93h17.7v97.9h-17.7V93z"/>
</g>
</svg>
